<svg xmlns="http://www.w3.org/2000/svg" width="429.00000000000006" height="52.25172108799262"
    viewBox="0 0 370.3170731707317 45.104206110580016" class="css-1j8o68f">
    <defs id="SvgjsDefs10272"></defs>
    <g id="SvgjsG10273" featurekey="symbolFeature-0"
        transform="matrix(0.7760532150776055,0,0,0.7760532150776055,-3.8802657053370178,-2.235040564230435)"
        fill="#0284c7">
        <title xmlns="http://www.w3.org/2000/svg">BUSINESS</title>
        <g xmlns="http://www.w3.org/2000/svg" data-name="Layer 35">
            <path
                d="M38.66,36.75a1,1,0,0,0-.41-.09c-9.32,0-17.61-5.2-21.16-13.1l3.83-.78-6.61-7.47-3.17,9.46,4-.8A24.79,24.79,0,0,0,36.3,38.58a1,1,0,0,0,.36.07A21.37,21.37,0,0,1,58,60a1,1,0,0,0,2,0A23.37,23.37,0,0,0,38.66,36.75Z"></path>
            <path
                d="M14.31,13.2A5.16,5.16,0,1,0,9.16,8,5.16,5.16,0,0,0,14.31,13.2Zm0-8.31A3.16,3.16,0,1,1,11.16,8,3.16,3.16,0,0,1,14.31,4.88Z"></path>
            <path
                d="M39.69,20.27a1,1,0,0,0,1.4-.2L43.41,17l2.32,3.09a1,1,0,0,0,1.6-1.2l-2.67-3.56,2.67-3.56a1,1,0,0,0-1.6-1.2l-2.32,3.09-2.32-3.09a1,1,0,0,0-1.6,1.2l2.67,3.56-2.67,3.56A1,1,0,0,0,39.69,20.27Z"></path>
            <path
                d="M12.83,33.22a1,1,0,0,0-1.4.2L9.12,36.51,6.8,33.42a1,1,0,0,0-1.6,1.2l2.67,3.56L5.2,41.73a1,1,0,1,0,1.6,1.2l2.32-3.09,2.32,3.09a1,1,0,0,0,1.6-1.2l-2.67-3.56L13,34.62A1,1,0,0,0,12.83,33.22Z"></path>
            <path
                d="M45.05,47.77a1,1,0,0,0-1.4.2l-2.32,3.09L39,48a1,1,0,0,0-1.6,1.2l2.67,3.56-2.67,3.56a1,1,0,1,0,1.6,1.2l2.32-3.09,2.32,3.09a1,1,0,0,0,1.6-1.2l-2.67-3.56,2.67-3.56A1,1,0,0,0,45.05,47.77Z"></path>
        </g>
    </g>
    <g id="SvgjsG10274" featurekey="nameFeature-0"
        transform="matrix(1.2064518175889916,0,0,1.2064518175889916,60.82838678586792,-7.195871394506337)"
        fill="#0284c7">
        <path
            d="M10.36 14.559999999999999 l0 21.08 l6.76 0 q2.8 0 5.04 -1.44 q2.12 -1.4 3.32 -3.76 t1.2 -5.16 q0 -2.92 -1.14 -5.36 t-3.26 -3.88 q-2.28 -1.48 -5.24 -1.48 l-6.68 0 z M3.72 14.559999999999999 l-1.92 -4.4 l15.2 0 q3.96 0 7.24 2.04 q3.16 1.96 5 5.36 t1.84 7.4 q0 3 -1.18 5.94 t-3.26 5.14 q-2 2.16 -4.28 3.08 q-2.2 0.88 -5.24 0.88 l-11.04 0 l0 -25.44 l-2.36 0 z M43.226 28.04 l0 7.6 l18.4 0 l0 4.36 l-22.76 0 l0 -29.84 l21 0 l0 4.4 l-16.64 0 l0 9.04 q1.24 -0.72 2.76 -0.96 q1.12 -0.2 2.88 -0.2 l6.52 0 l0 4.44 l-6.52 0 q-1.64 0 -2.88 0.2 q-1.52 0.28 -2.76 0.96 z M96.412 10.16 l-12.52 29.84 l-5.16 0 l-12.32 -29.84 l4.72 0 l10.2 24.96 l10.28 -24.96 l4.8 0 z M140.38400000000001 14 l-2.8 3.28 q-1.64 -1.68 -3.92 -2.64 t-4.8 -0.96 q-3.28 0 -5.98 1.48 t-4.22 4.04 q-1.56 2.68 -1.56 5.96 q0 3.12 1.68 5.76 q1.6 2.48 4.3 3.94 t5.82 1.46 q2.2 0 4.22 -0.76 t3.62 -2.12 l0 -5.44 l-3.84 0 l-1.88 -4.32 l10.04 0 l0 11.6 q-2.28 2.56 -5.46 3.98 t-6.74 1.42 q-4.44 0 -8.16 -2.16 q-3.64 -2.08 -5.72 -5.72 q-2.16 -3.72 -2.16 -8.16 q0 -4.28 2.28 -7.88 q2.16 -3.44 5.86 -5.46 t7.94 -2.02 q3.32 0 6.32 1.28 q2.92 1.2 5.16 3.44 z M162.45000000000002 40.68 q-4.2 0 -7.22 -1.46 t-4.6 -4.22 t-1.58 -6.6 l0 -18.24 l4.32 0 l0 18.24 q0 3.84 2.36 5.88 t6.72 2.04 t6.72 -2.04 t2.36 -5.88 l0 -18.24 l4.32 0 l0 18.24 q0 3.84 -1.58 6.6 t-4.6 4.22 t-7.22 1.46 z M189.51600000000002 40 l-4.28 0 l0 -29.84 l4.28 0 l0 29.84 z M205.262 14.559999999999999 l0 21.08 l6.76 0 q2.8 0 5.04 -1.44 q2.12 -1.4 3.32 -3.76 t1.2 -5.16 q0 -2.92 -1.14 -5.36 t-3.26 -3.88 q-2.28 -1.48 -5.24 -1.48 l-6.68 0 z M198.622 14.559999999999999 l-1.92 -4.4 l15.2 0 q3.96 0 7.24 2.04 q3.16 1.96 5 5.36 t1.84 7.4 q0 3 -1.18 5.94 t-3.26 5.14 q-2 2.16 -4.28 3.08 q-2.2 0.88 -5.24 0.88 l-11.04 0 l0 -25.44 l-2.36 0 z M238.12800000000001 28.04 l0 7.6 l18.4 0 l0 4.36 l-22.76 0 l0 -29.84 l21 0 l0 4.4 l-16.64 0 l0 9.04 q1.24 -0.72 2.76 -0.96 q1.12 -0.2 2.88 -0.2 l6.52 0 l0 4.44 l-6.52 0 q-1.64 0 -2.88 0.2 q-1.52 0.28 -2.76 0.96 z"></path>
    </g>
</svg>