<svg xmlns="http://www.w3.org/2000/svg" width="50" viewBox="0 0 50 50"
    class="css-1j8o68f">
    <defs id="SvgjsDefs1011"></defs>
    <g id="SvgjsG1012" featurekey="symbolFeature-0"
        transform="matrix(0.7760532150776055,0,0,0.7760532150776055,-3.8802657053370178,-2.235040564230435)"
        fill="#0284c7">
        <title xmlns="http://www.w3.org/2000/svg">BUSINESS</title>
        <g xmlns="http://www.w3.org/2000/svg" data-name="Layer 35">
            <path
                d="M38.66,36.75a1,1,0,0,0-.41-.09c-9.32,0-17.61-5.2-21.16-13.1l3.83-.78-6.61-7.47-3.17,9.46,4-.8A24.79,24.79,0,0,0,36.3,38.58a1,1,0,0,0,.36.07A21.37,21.37,0,0,1,58,60a1,1,0,0,0,2,0A23.37,23.37,0,0,0,38.66,36.75Z"></path>
            <path
                d="M14.31,13.2A5.16,5.16,0,1,0,9.16,8,5.16,5.16,0,0,0,14.31,13.2Zm0-8.31A3.16,3.16,0,1,1,11.16,8,3.16,3.16,0,0,1,14.31,4.88Z"></path>
            <path
                d="M39.69,20.27a1,1,0,0,0,1.4-.2L43.41,17l2.32,3.09a1,1,0,0,0,1.6-1.2l-2.67-3.56,2.67-3.56a1,1,0,0,0-1.6-1.2l-2.32,3.09-2.32-3.09a1,1,0,0,0-1.6,1.2l2.67,3.56-2.67,3.56A1,1,0,0,0,39.69,20.27Z"></path>
            <path
                d="M12.83,33.22a1,1,0,0,0-1.4.2L9.12,36.51,6.8,33.42a1,1,0,0,0-1.6,1.2l2.67,3.56L5.2,41.73a1,1,0,1,0,1.6,1.2l2.32-3.09,2.32,3.09a1,1,0,0,0,1.6-1.2l-2.67-3.56L13,34.62A1,1,0,0,0,12.83,33.22Z"></path>
            <path
                d="M45.05,47.77a1,1,0,0,0-1.4.2l-2.32,3.09L39,48a1,1,0,0,0-1.6,1.2l2.67,3.56-2.67,3.56a1,1,0,1,0,1.6,1.2l2.32-3.09,2.32,3.09a1,1,0,0,0,1.6-1.2l-2.67-3.56,2.67-3.56A1,1,0,0,0,45.05,47.77Z"></path>
        </g>
    </g>
</svg>