<svg xmlns="http://www.w3.org/2000/svg" width="370" viewBox="0 0 370.3170731707317 45.104206110580016"
    class="css-1j8o68f">
    <defs id="SvgjsDefs1011"></defs>
    <g id="SvgjsG1012" featurekey="symbolFeature-0"
        transform="matrix(0.7760532150776055,0,0,0.7760532150776055,-3.8802657053370178,-2.235040564230435)"
        fill="#0284c7">
        <title xmlns="http://www.w3.org/2000/svg">BUSINESS</title>
        <g xmlns="http://www.w3.org/2000/svg" data-name="Layer 35">
            <path
                d="M38.66,36.75a1,1,0,0,0-.41-.09c-9.32,0-17.61-5.2-21.16-13.1l3.83-.78-6.61-7.47-3.17,9.46,4-.8A24.79,24.79,0,0,0,36.3,38.58a1,1,0,0,0,.36.07A21.37,21.37,0,0,1,58,60a1,1,0,0,0,2,0A23.37,23.37,0,0,0,38.66,36.75Z"></path>
            <path
                d="M14.31,13.2A5.16,5.16,0,1,0,9.16,8,5.16,5.16,0,0,0,14.31,13.2Zm0-8.31A3.16,3.16,0,1,1,11.16,8,3.16,3.16,0,0,1,14.31,4.88Z"></path>
            <path
                d="M39.69,20.27a1,1,0,0,0,1.4-.2L43.41,17l2.32,3.09a1,1,0,0,0,1.6-1.2l-2.67-3.56,2.67-3.56a1,1,0,0,0-1.6-1.2l-2.32,3.09-2.32-3.09a1,1,0,0,0-1.6,1.2l2.67,3.56-2.67,3.56A1,1,0,0,0,39.69,20.27Z"></path>
            <path
                d="M12.83,33.22a1,1,0,0,0-1.4.2L9.12,36.51,6.8,33.42a1,1,0,0,0-1.6,1.2l2.67,3.56L5.2,41.73a1,1,0,1,0,1.6,1.2l2.32-3.09,2.32,3.09a1,1,0,0,0,1.6-1.2l-2.67-3.56L13,34.62A1,1,0,0,0,12.83,33.22Z"></path>
            <path
                d="M45.05,47.77a1,1,0,0,0-1.4.2l-2.32,3.09L39,48a1,1,0,0,0-1.6,1.2l2.67,3.56-2.67,3.56a1,1,0,1,0,1.6,1.2l2.32-3.09,2.32,3.09a1,1,0,0,0,1.6-1.2l-2.67-3.56,2.67-3.56A1,1,0,0,0,45.05,47.77Z"></path>
        </g>
    </g>
    <g id="SvgjsG1013" featurekey="nameFeature-0"
        transform="matrix(1.3160654777740246,0,0,1.3160654777740246,58.735946270588876,-10.160654777740247)"
        fill="#0284c7">
        <path
            d="M21.12 11.04 q2.44 0.92 4.4 2.96 q4.2 4.24 4.2 10.82 t-4.2 10.86 q-1.96 2.04 -4.4 2.96 q-2.52 1.04 -5.16 1.04 l-11.32 0 q-0.56 0 -0.98 -0.42 t-0.42 -0.98 l0 -2.88 q0 -0.6 0.42 -1.02 t0.98 -0.42 l11.2 0 q3.56 0 5.78 -2.6 t2.22 -6.52 t-2.22 -6.52 t-5.78 -2.6 l-11.2 0 q-0.56 0 -0.98 -0.42 t-0.42 -1.02 l0 -2.88 q0 -0.56 0.42 -0.98 t0.98 -0.42 l11.32 0 q2.64 0 5.16 1.04 z M56.604 33.92 q0.6 0 1 0.42 t0.4 1.02 l0 2.92 q0 0.56 -0.4 0.98 t-1 0.42 l-19.76 0 q-0.56 0 -0.98 -0.42 t-0.42 -0.98 l0 -2.92 q0 -0.6 0.42 -1.02 t0.98 -0.42 l19.76 0 z M36.844 27.72 q-0.56 0 -0.98 -0.42 t-0.42 -0.98 l0 -3 q0 -0.56 0.42 -0.98 t0.98 -0.42 l17.96 0 q0.6 0 1.02 0.42 t0.42 0.98 l0 3 q0 0.56 -0.42 0.98 t-1.02 0.42 l-17.96 0 z M56.604 10 q0.6 0 1 0.42 t0.4 0.98 l0 2.92 q0 0.6 -0.4 1.02 t-1 0.42 l-19.76 0 q-0.56 0 -0.98 -0.42 t-0.42 -1.02 l0 -2.92 q0 -0.56 0.42 -0.98 t0.98 -0.42 l19.76 0 z M88.688 10.64 q0.44 0.6 0.16 1.32 l-10.96 27.08 q-0.16 0.4 -0.52 0.64 t-0.8 0.24 l-3.52 0 q-0.44 0 -0.8 -0.24 t-0.52 -0.64 l-10.96 -27.08 q-0.32 -0.68 0.12 -1.32 t1.16 -0.64 l13.36 0 q0.56 0 0.98 0.42 t0.42 1.02 l0 2.92 q0 0.6 -0.42 1.02 t-0.98 0.42 l-6.72 0 l6.12 15.4 l8.04 -20.32 q0.16 -0.4 0.52 -0.64 t0.8 -0.24 l3.36 0 q0.36 0 0.68 0.18 t0.48 0.46 z M118.21600000000001 15.8 q-0.48 -0.08 -0.8 -0.48 t-0.32 -0.88 l0 -3.04 q0 -0.6 0.48 -1.08 q0.52 -0.4 1.16 -0.28 q4.72 0.8 8 4.2 q1.68 1.76 2.72 4 q0.16 0.28 0.14 0.64 t-0.22 0.68 t-0.5 0.5 t-0.66 0.18 l-3.4 0 q-0.36 0 -0.68 -0.18 t-0.52 -0.5 q-0.56 -0.84 -1.04 -1.32 q-1.8 -1.84 -4.36 -2.44 z M114.13600000000001 10.32 q0.48 0.48 0.48 1.08 l0 3.04 q0 0.48 -0.32 0.88 t-0.8 0.48 q-2.56 0.6 -4.36 2.44 q-2.48 2.68 -2.48 6.7 t2.48 6.7 q1.72 1.84 4.36 2.44 q0.48 0.08 0.8 0.48 t0.32 0.88 l0 3.04 q0 0.64 -0.52 1.08 q-0.4 0.32 -0.88 0.32 l-0.24 0 q-4.8 -0.88 -8 -4.24 q-4.16 -4.28 -4.16 -10.7 t4.16 -10.7 q3.24 -3.4 8 -4.2 q0.64 -0.12 1.16 0.28 z M130.85600000000002 24.119999999999997 q0.04 0.28 0.04 0.84 q0 0.88 -0.12 2.04 q-0.6 5.08 -4.04 8.64 q-3.28 3.4 -8 4.24 l-0.24 0 q-0.48 0 -0.92 -0.32 q-0.48 -0.48 -0.48 -1.08 l0 -3.04 q0 -0.48 0.32 -0.88 t0.8 -0.48 q2.64 -0.6 4.36 -2.44 q1.4 -1.48 2 -3.4 l-8.48 0 q-0.6 0 -1 -0.4 t-0.4 -1 l0 -2.84 q0 -0.56 0.4 -0.98 t1 -0.42 l13.36 0 q0.56 0 0.96 0.38 t0.44 0.94 l0 0.2 z M146.5 34.12 q0.48 0.16 0.76 0.54 t0.28 0.86 l0 3.08 q0 0.64 -0.52 1.08 q-0.4 0.32 -0.88 0.32 q-0.2 0 -0.28 -0.04 q-3.72 -0.72 -6.4 -3.44 q-3.6 -3.68 -3.6 -9.68 l0 -15.4 q0 -0.6 0.42 -1.02 t0.98 -0.42 l3.08 0 q0.6 0 1.02 0.42 t0.42 1.02 l0 15.48 q0 3.8 2.16 5.8 q1.12 1.04 2.56 1.4 z M160.3 10 q0.6 0 1.02 0.42 t0.42 1.02 l0 15.4 q0 6 -3.6 9.68 q-2.68 2.72 -6.4 3.44 q-0.08 0.04 -0.28 0.04 q-0.48 0 -0.88 -0.32 q-0.52 -0.4 -0.52 -1.12 l0 -3.08 q0 -0.44 0.28 -0.82 t0.76 -0.54 q1.52 -0.44 2.56 -1.4 q2.16 -1.92 2.16 -5.8 l0 -15.48 q0 -0.6 0.42 -1.02 t1.02 -0.42 l3.04 0 z M173.224 21.88 q0.6 0 1 0.42 t0.4 1.02 l0 14.96 q0 0.56 -0.4 0.98 t-1 0.42 l-3.04 0 q-0.56 0 -0.98 -0.42 t-0.42 -0.98 l0 -14.96 q0 -0.6 0.42 -1.02 t0.98 -0.42 l3.04 0 z M173.224 10 q0.6 0 1 0.42 t0.4 0.98 l0 7.4 q0 0.6 -0.4 1.02 t-1 0.42 l-3.04 0 q-0.56 0 -0.98 -0.42 t-0.42 -1.02 l0 -7.4 q0 -0.56 0.42 -0.98 t0.98 -0.42 l3.04 0 z M199.868 11.04 q2.44 0.92 4.4 2.96 q4.2 4.24 4.2 10.82 t-4.2 10.86 q-1.96 2.04 -4.4 2.96 q-2.52 1.04 -5.16 1.04 l-11.32 0 q-0.56 0 -0.98 -0.42 t-0.42 -0.98 l0 -2.88 q0 -0.6 0.42 -1.02 t0.98 -0.42 l11.2 0 q3.56 0 5.78 -2.6 t2.22 -6.52 t-2.22 -6.52 t-5.78 -2.6 l-11.2 0 q-0.56 0 -0.98 -0.42 t-0.42 -1.02 l0 -2.88 q0 -0.56 0.42 -0.98 t0.98 -0.42 l11.32 0 q2.64 0 5.16 1.04 z M235.352 33.92 q0.6 0 1 0.42 t0.4 1.02 l0 2.92 q0 0.56 -0.4 0.98 t-1 0.42 l-19.76 0 q-0.56 0 -0.98 -0.42 t-0.42 -0.98 l0 -2.92 q0 -0.6 0.42 -1.02 t0.98 -0.42 l19.76 0 z M215.59199999999998 27.72 q-0.56 0 -0.98 -0.42 t-0.42 -0.98 l0 -3 q0 -0.56 0.42 -0.98 t0.98 -0.42 l17.96 0 q0.6 0 1.02 0.42 t0.42 0.98 l0 3 q0 0.56 -0.42 0.98 t-1.02 0.42 l-17.96 0 z M235.352 10 q0.6 0 1 0.42 t0.4 0.98 l0 2.92 q0 0.6 -0.4 1.02 t-1 0.42 l-19.76 0 q-0.56 0 -0.98 -0.42 t-0.42 -1.02 l0 -2.92 q0 -0.56 0.42 -0.98 t0.98 -0.42 l19.76 0 z"></path>
    </g>
</svg>